<?xml version="1.0" standalone="no"?>
<!DOCTYPE svg PUBLIC "-//W3C//DTD SVG 20010904//EN"
 "http://www.w3.org/TR/2001/REC-SVG-20010904/DTD/svg10.dtd">
<svg version="1.0" xmlns="http://www.w3.org/2000/svg"
 width="512.000000pt" height="512.000000pt" viewBox="0 0 512.000000 512.000000"
 preserveAspectRatio="xMidYMid meet">

<g transform="translate(0.000000,512.000000) scale(0.100000,-0.100000)"
fill="#000000" stroke="none">
<path d="M1961 5103 c-26 -9 -65 -36 -92 -63 -75 -75 -79 -98 -79 -461 l0
-307 -357 -5 c-406 -5 -427 -8 -578 -82 -190 -93 -318 -240 -392 -450 l-28
-80 0 -1175 0 -1175 23 -75 c66 -210 211 -378 408 -471 122 -58 184 -70 397
-76 l187 -6 0 -304 c0 -328 4 -354 52 -367 13 -3 533 -6 1156 -6 l1133 0 24
25 25 24 0 314 0 314 103 6 c347 22 601 211 714 532 l28 80 0 1180 0 1180 -28
80 c-72 203 -197 351 -379 445 -138 72 -195 82 -505 87 l-273 5 0 307 c0 340
-5 376 -60 444 -18 20 -53 49 -78 65 l-47 27 -655 2 c-575 1 -660 0 -699 -14z
m1340 -182 l29 -29 0 -311 0 -311 -685 0 -685 0 0 311 0 311 29 29 29 29 627
0 627 0 29 -29z m774 -845 c161 -47 308 -166 378 -306 71 -143 67 -74 67
-1292 0 -748 -3 -1114 -11 -1150 -6 -29 -29 -91 -52 -138 -72 -149 -215 -267
-378 -314 -51 -15 -200 -17 -1515 -18 -1360 -1 -1463 0 -1519 16 -168 49 -312
169 -383 317 -22 46 -45 108 -51 137 -15 74 -15 2220 0 2294 6 29 29 91 52
138 85 174 266 306 451 329 28 3 692 6 1476 5 1322 -1 1429 -2 1485 -18z
m-405 -3651 l0 -255 -1025 0 -1025 0 0 255 0 255 1025 0 1025 0 0 -255z"/>
<path d="M1885 3051 c-82 -50 -112 -134 -77 -213 57 -129 230 -142 300 -22 48
82 13 198 -71 238 -46 21 -115 20 -152 -3z"/>
<path d="M3085 3054 c-66 -34 -95 -82 -95 -156 1 -135 160 -214 267 -132 102
78 87 230 -28 290 -37 18 -106 18 -144 -2z"/>
<path d="M3087 2027 c-12 -13 -42 -51 -66 -86 -102 -143 -280 -231 -466 -231
-192 0 -381 96 -479 244 -20 31 -46 62 -59 71 -31 22 -72 19 -102 -8 -58 -50
-26 -130 105 -257 146 -141 337 -220 538 -220 254 0 484 122 631 334 45 65 53
114 25 154 -22 32 -96 31 -127 -1z"/>
</g>
</svg>
